# xmcd
#
# Track frame offsets: 
#        150
#        8591
#        16441
#        28489
#        41416
#        53594
#        69123
#        78133
#        94951
#        105613
#        119801
#        130701
#
# Disc length: 1983 seconds
#
# Revision: 0
# Processed by: cddbd v1.5.2PL0 Copyright (c) Steve Scherf et al.
# Submitted via: ExactAudioCopyFreeDBPlugin 1.0
#
DISCID=9107bd0c
DTITLE=Calle and Dave Lindholm - The Blue CD
DYEAR=2012
DGENRE=Blues
TTITLE0=Rock My Soul
TTITLE1=Take The Suti And Do The Jump
TTITLE2=Sometimes Things Go Wrong
TTITLE3=Magnolia Blues
TTITLE4=Golden Man
TTITLE5=Don't Throw Your Love Away
TTITLE6=Summer's Gone
TTITLE7=Rocks In My Bed
TTITLE8=Danger Zone
TTITLE9=Is This A Blues At All?
TTITLE10=Annie's Lover
TTITLE11=Stewball
EXTD=
EXTT0=
EXTT1=
EXTT2=
EXTT3=
EXTT4=
EXTT5=
EXTT6=
EXTT7=
EXTT8=
EXTT9=
EXTT10=
EXTT11=
PLAYORDER=
